# AST/ASF file generated using VICON BodyLanguage
# -----------------------------------------------
:version 1.10
:name VICON
:units
  mass 1.0
  length 0.45
  angle deg
:documentation
   .ast/.asf automatically generated from VICON data using
   VICON BodyBuilder and BodyLanguage model FoxedUp or BRILLIANT.MOD
:root
   order TX TY TZ RX RY RZ
   axis XYZ
   position 0 0 0  
   orientation 0 0 0 
:bonedata
  begin
     id 1 
     name lhipjoint
     direction 0.692814 -0.645514 0.321437 
     length 2.38754 
     axis 0 0 0  XYZ
  end
  begin
     id 2 
     name lfemur
     direction 0.34202 -0.939693 0  
     length 6.41921  
     axis 0 0 20  XYZ
    dof rx ry rz
    limits (-160.0 20.0)
           (-70.0 70.0)
           (-60.0 70.0)
  end
  begin
     id 3 
     name ltibia
     direction 0.34202 -0.939693 0   
     length 6.98247   
     axis 0 0 20   XYZ
    dof rx
    limits (-10.0 170.0)
  end
  begin
     id 4 
     name lfoot
     direction 0.0947186 -0.260237 0.960888   
     length 1.83034   
     axis -90 7.62852e-016 20   XYZ
    dof rx rz
    limits (-45.0 90.0)
           (-70.0 20.0)
  end
  begin
     id 5 
     name ltoes
     direction 1.53538e-011 -4.21952e-011 1   
     length 0.920499   
     axis -90 7.62852e-016 20   XYZ
    dof rx
    limits (-90.0 20.0)
  end
  begin
     id 6 
     name rhipjoint
     direction -0.631686 -0.693949 0.345555   
     length 2.2209  
     axis 0 0 0  XYZ 
  end
  begin
     id 7 
     name rfemur
     direction -0.34202 -0.939693 0   
     length 6.49542   
     axis 0 0 -20   XYZ
    dof rx ry rz
    limits (-160.0 20.0)
           (-70.0 70.0)
           (-70.0 60.0)
  end
  begin
     id 8 
     name rtibia
     direction -0.34202 -0.939693 0   
     length 7.21712   
     axis 0 0 -20   XYZ
    dof rx
    limits (-10.0 170.0)
 end
 begin
     id 9 
     name rfoot
     direction -0.0825378 -0.226771 0.970444   
     length 1.89724  
     axis -90 -7.62852e-016 -20   XYZ
    dof rx rz
    limits (-45.0 90.0)
           (-20.0 70.0)
  end
  begin
     id 10 
     name rtoes
     direction -1.53515e-011 -4.22016e-011 1   
     length 0.955868   
     axis -90 -7.62852e-016 -20   XYZ
    dof rx
    limits (-90.0 20.0)
  end
  begin
     id 11 
     name lowerback
     direction -0.0104711 0.984802 -0.173368   
     length 1.84931   
     axis 0 0 0   XYZ
    dof rx ry rz
    limits (-20.0 45.0)
           (-30.0 30.0)
           (-30.0 30.0)
  end
  begin
     id 12 
     name upperback
     direction -0.00286433 0.999996 -0.000382853   
     length 1.85768   
     axis 0 0 0   XYZ
    dof rx ry rz
    limits (-20.0 45.0)
           (-30.0 30.0)
           (-30.0 30.0)
  end
  begin
     id 13 
     name thorax
     direction 0.00167534 0.996793 0.0800069   
     length 1.92   
     axis 0 0 0   XYZ
    dof rx ry rz
    limits (-20.0 45.0)
           (-30.0 30.0)
           (-30.0 30.0)
  end
  begin
     id 14 
     name lowerneck
     direction -0.0672491 0.995415 0.068018   
     length 1.58923   
     axis 0 0 0   XYZ
    dof rx ry rz
    limits (-20.0 45.0)
           (-30.0 30.0)
           (-30.0 30.0)
  end
  begin
     id 15 
     name upperneck
     direction 0.0958019 0.982476 -0.159884   
     length 1.60189   
     axis 0 0 0   XYZ
    dof rx ry rz
    limits (-20.0 45.0)
           (-30.0 30.0)
           (-30.0 30.0)
  end
  begin
     id 16
     name head
     direction 0.032989 0.997338 -0.0650226  
     length 1.61681  
     axis 0 0 0   XYZ
    dof rx ry rz
    limits (-20.0 45.0)
           (-30.0 30.0)
           (-30.0 30.0)
  end
  begin
     id 17 
     name lclavicle
     direction 0.954279 0.298875 -0.00496069  
     length 2.99449  
     axis 0 0 0   XYZ
    dof ry rz
    limits (-20.0 10.0)
           (0.0 20.0)
  end
  begin
     id 18 
     name lhumerus
     direction 1 -4.48985e-011 -4.2057e-027   
     length 4.79185   
     axis 180 -30 -90   XYZ
    dof rx ry rz
    limits (-60.0 90.0)
           (-90.0 90.0)
           (-90.0 90.0)
  end
  begin
     id 19
     name lradius
     direction 1 -4.48945e-011 1.15441e-028   
     length 2.65553   
     axis 180 -30 -90   XYZ
    dof rx
    limits (-10.0 170.0)
  end
  begin
     id 20
     name lwrist
     direction 1 -4.4899e-011 4.8894e-028   
     length 1.32777   
     axis -2.56392e-016 90 90   XYZ
    dof ry
    limits (-180.0 0.0)
 end
  begin
     id 21 
     name lhand
     direction 1 -4.48908e-011 9.7788e-028   
     length 0.743904   
     axis -6.23971e-016 90 90   XYZ
    dof rx rz
    limits (-90.0 90.0)
           (-45.0 45.0)
  end
  begin
     id 22 
     name lfingers
     direction 1 -4.49068e-011 1.95576e-027   
     length 0.599754   
     axis -1.24794e-015 90 90   XYZ
    dof rx
    limits (0.0 90.0)
  end
  begin
     id 23
     name lthumb
     direction 0.707107 -6.34883e-011 0.707107   
     length 0.861131   
     axis -90 45 2.85299e-015   XYZ
    dof rx rz
    limits (-45.0 45.0)
           (-45.0 45.0)
  end
  begin
     id 24 
     name rclavicle
     direction -0.957921 0.286916 0.00811568   
     length 3.06817  
     axis 0 0 0   XYZ 
    dof ry rz
    limits (-10.0 20.0)
           (-20.0 0.0)
  end
  begin
     id 25 
     name rhumerus
     direction -1 -4.48971e-011 -3.07942e-027  
     length 4.77254   
     axis 180 30 90   XYZ
    dof rx ry rz
    limits (-90.0 60.0)
           (-90.0 90.0)
           (-90.0 90.0)
  end
  begin
     id 26 
     name rradius
     direction -1 -4.48957e-011 -9.6815e-028   
     length 2.75995   
     axis 180 30 90   XYZ
    dof rx
    limits (-10.0 170.0)
  end
  begin
     id 27 
     name rwrist
     direction -1 -4.48979e-011 4.8894e-028   
     length 1.37997   
     axis -2.56392e-016 -90 -90   XYZ
    dof ry
    limits (-180.0 0.0)
  end
  begin
     id 28
     name rhand
     direction -1 -4.48906e-011 9.7788e-028   
     length 0.701619   
     axis -6.23971e-016 -90 -90   XYZ
    dof rx rz
    limits (-90.0 90.0)
           (-45.0 45.0)
  end
  begin
     id 29
     name rfingers
     direction -1 -4.49018e-011 1.95576e-027   
     length 0.565663   
     axis -1.24794e-015 -90 -90   XYZ
    dof rx
    limits (0.0 90.0)
  end
  begin
     id 30
     name rthumb
     direction -0.707107 -6.34881e-011 0.707107   
     length 0.812183   
     axis -90 -45 -2.85299e-015   XYZ
    dof rx rz
    limits (-45.0 45.0)
           (-45.0 45.0)
  end
:hierarchy
  begin
    root lhipjoint rhipjoint lowerback
    lhipjoint lfemur
    lfemur ltibia
    ltibia lfoot
    lfoot ltoes
    rhipjoint rfemur
    rfemur rtibia
    rtibia rfoot
    rfoot rtoes
    lowerback upperback
    upperback thorax
    thorax lowerneck lclavicle rclavicle
    lowerneck upperneck
    upperneck head
    lclavicle lhumerus
    lhumerus lradius
    lradius lwrist
    lwrist lhand lthumb
    lhand lfingers
    rclavicle rhumerus
    rhumerus rradius
    rradius rwrist
    rwrist rhand rthumb
    rhand rfingers
  end

#!OML:ASF F:\VICON\USERDATA\INSTALL\rory3\rory3.ASF
:FULLY-SPECIFIED
:DEGREES
913
root 1.43633 15.7548 -1.06227 2.19556 6.3315 4.40592
lowerback 17.5679 2.84066 1.68177
upperback -0.409543 4.65968 4.99068
thorax -10.6479 2.28454 3.28154
lowerneck -5.78207 -16.4932 -20.5957
upperneck 10.6851 -22.9707 18.3227
head 8.86004 -10.8721 6.34175
rclavicle -1.90833e-014 2.22639e-014
rhumerus 81.6221 20.9658 -47.5449
rradius 60.5422
rwrist -14.1828
rhand -24.876 17.8439
rfingers 7.12502
rthumb 1.63129 -12.1296
lclavicle -1.90833e-014 2.22639e-014
lhumerus 47.7319 6.5732 30.7215
lradius 74.7342
lwrist 20.0233
lhand -4.59813 21.6799
lfingers 7.12502
lthumb 21.1795 50.543
rfemur -15.5997 6.59344 5.91525
rtibia 33.1497
rfoot -14.0318 -16.047
rtoes -15.8629
lfemur -15.3525 -7.04105 -25.8479
ltibia 26.6314
lfoot -8.32067 -0.601281
ltoes -4.12385
914
root 1.46517 15.7392 -1.08642 2.14062 4.76618 4.58504
lowerback 17.5988 2.72179 1.5231
upperback -0.245663 4.46572 5.06344
thorax -10.4903 2.20284 3.50374
lowerneck -5.55177 -16.3179 -20.422
upperneck 10.4877 -22.6832 17.9708
head 8.6243 -10.7719 6.28477
rclavicle 5.08889e-014 3.18055e-014
rhumerus 80.6898 21.5984 -47.9117
rradius 60.2723
rwrist -13.8609
rhand -24.703 17.368
rfingers 7.12502
rthumb 1.79837 -12.6042
lclavicle 5.08889e-014 3.18055e-014
lhumerus 47.5039 5.48428 30.9234
lradius 74.527
lwrist 20.3751
lhand -4.52137 21.6827
lfingers 7.12502
lthumb 21.2532 50.5375
rfemur -16.467 6.99777 5.47304
rtibia 33.6254
rfoot -13.907 -15.0859
rtoes -16.2265
lfemur -15.5466 -6.21375 -26.1581
ltibia 27.1209
lfoot -8.83063 0.083253
ltoes -5.04951
915
root 1.49134 15.7219 -1.10917 2.08106 3.2207 4.72146
lowerback 17.7485 2.59196 1.39832
upperback -0.167219 4.27124 5.10136
thorax -10.4887 2.11697 3.66503
lowerneck -5.27606 -16.0923 -20.2639
upperneck 10.4113 -22.3589 17.6498
head 8.42291 -10.6527 6.25037
rclavicle 6.91771e-014 3.81667e-014
rhumerus 79.5158 22.3034 -48.2876
rradius 60.1438
rwrist -13.6478
rhand -24.889 16.6072
rfingers 7.12502
rthumb 1.61874 -13.3664
lclavicle 6.91771e-014 3.81667e-014
lhumerus 47.2052 4.26327 31.3544
lradius 74.1302
lwrist 20.2357
lhand -4.57435 21.4314
lfingers 7.12502
lthumb 21.2023 50.2919
rfemur -17.3146 7.46982 5.10572
rtibia 34.0866
rfoot -13.8551 -14.1864
rtoes -16.6966
lfemur -15.7871 -5.37791 -26.3895
ltibia 27.647
lfoot -9.28817 0.680036
ltoes -5.32977
916
root 1.51474 15.704 -1.13001 2.0223 1.67304 4.82741
lowerback 18.0668 2.45547 1.46993
upperback -0.181374 4.10252 4.96724
thorax -10.6582 2.02589 3.51344
lowerneck -5.05889 -15.8724 -19.9831
upperneck 10.4755 -22.0749 17.3681
head 8.27941 -10.5389 6.19819
rclavicle -5.56597e-015 -3.18055e-014
rhumerus 78.0502 22.9572 -49.0656
rradius 59.9196
rwrist -13.4892
rhand -24.9938 16.7342
rfingers 7.12502
rthumb 1.51752 -13.2401
lclavicle -5.56597e-015 -3.18055e-014
lhumerus 47.0929 2.81258 31.8293
lradius 73.6993
lwrist 19.7435
lhand -4.82165 21.379
lfingers 7.12502
lthumb 20.9648 50.266
rfemur -18.193 7.94247 4.8057
rtibia 34.5503
rfoot -13.7111 -13.373
rtoes -17.9767
lfemur -16.0385 -4.54716 -26.577
ltibia 28.1852
lfoot -9.74479 1.28292
ltoes -5.26202
917
root 1.53589 15.6876 -1.14828 1.95673 0.183 4.90542
lowerback 18.3204 2.27087 1.5267
upperback -0.145881 3.86571 4.87377
thorax -10.7367 1.9052 3.4367
lowerneck -5.06854 -15.6342 -19.7063
upperneck 10.6621 -21.7126 16.9236
head 8.18137 -10.382 6.08886
rclavicle 0 -5.40694e-014
rhumerus 76.6367 23.6311 -49.7091
rradius 59.7905
rwrist -13.3668
rhand -24.9912 17.0057
rfingers 7.12502
rthumb 1.52009 -12.9686
lclavicle 0 -5.40694e-014
lhumerus 46.9368 1.35378 32.2837
lradius 73.4979
lwrist 19.3716
lhand -5.05788 21.6591
lfingers 7.12502
lthumb 20.7378 50.5711
rfemur -19.0485 8.40171 4.5553
rtibia 35.0046
rfoot -13.6077 -12.5493
rtoes -19.0959
lfemur -16.3135 -3.73731 -26.7208
ltibia 28.7838
lfoot -10.2305 1.81788
ltoes -5.14318
